<?xml version="1.0" encoding="UTF-8"?>
<svg xmlns="http://www.w3.org/2000/svg" xmlns:xlink="http://www.w3.org/1999/xlink" width="700px" height="700px" viewBox="0 0 700 700" version="1.1">
<g id="surface1">
<path style=" stroke:none;fill-rule:nonzero;fill:rgb(0%,0%,0%);fill-opacity:1;" d="M 336.054688 0.328125 C 324.242188 1.039062 314.671875 1.859375 307.070312 2.789062 C 252.65625 9.460938 201.6875 28.328125 156.132812 58.679688 C 106.53125 91.710938 66.007812 137.046875 38.773438 190.039062 C 17.171875 232.09375 5.140625 274.75 1.039062 324.023438 C 0.109375 334.578125 0.109375 365.421875 1.039062 375.976562 C 5.140625 425.25 17.171875 467.90625 38.773438 509.960938 C 72.132812 574.929688 125.070312 627.867188 190.039062 661.226562 C 232.09375 682.828125 274.75 694.859375 324.023438 698.960938 C 334.578125 699.890625 365.421875 699.890625 375.976562 698.960938 C 425.25 694.859375 467.90625 682.828125 509.960938 661.226562 C 574.875 627.867188 627.867188 574.875 661.226562 509.960938 C 682.828125 467.90625 694.859375 425.25 698.960938 375.976562 C 699.890625 365.421875 699.890625 334.578125 698.960938 324.023438 C 694.859375 274.75 682.828125 232.09375 661.226562 190.039062 C 627.867188 125.070312 574.929688 72.132812 509.960938 38.773438 C 468.78125 17.609375 426.234375 5.414062 379.257812 1.367188 C 370.289062 0.546875 342.835938 -0.109375 336.054688 0.328125 Z M 376.46875 42.929688 C 436.515625 48.070312 492.460938 70.21875 540.585938 107.898438 C 562.515625 125.070312 584.554688 148.257812 601.070312 171.445312 C 633.773438 217.382812 652.695312 269.5 657.398438 326.757812 C 658.273438 337.3125 658.273438 362.6875 657.398438 373.242188 C 651.164062 448.984375 619.5 516.960938 565.960938 569.625 C 513.460938 621.140625 447.179688 651.328125 373.242188 657.398438 C 362.6875 658.273438 337.3125 658.273438 326.757812 657.398438 C 252.820312 651.328125 186.703125 621.25 134.09375 569.625 C 80.554688 517.125 48.726562 448.765625 42.601562 373.242188 C 41.78125 362.6875 41.78125 337.3125 42.601562 326.757812 C 48.726562 251.070312 80.5 182.984375 134.367188 130.101562 C 182.054688 83.289062 242.921875 53.375 308.4375 44.625 C 331.1875 41.617188 353.9375 41.015625 376.46875 42.929688 Z M 376.46875 42.929688 "/>
<path style=" stroke:none;fill-rule:nonzero;fill:rgb(0%,0%,0%);fill-opacity:1;" d="M 341.414062 158.59375 C 308.65625 160.234375 281.3125 166.960938 254.296875 179.976562 C 216.015625 198.460938 188.617188 226.1875 168.21875 267.148438 C 154.929688 293.890625 147.273438 321.78125 144.867188 352.40625 C 143.554688 368.8125 144.703125 393.695312 147.382812 409.390625 C 152.085938 436.460938 162.695312 463.859375 176.476562 484.75 C 200.375 520.789062 239.75 545.453125 291.210938 556.664062 C 314.78125 561.804688 334.796875 563.554688 364.21875 563.117188 C 383.742188 562.84375 393.476562 562.023438 408.570312 559.453125 C 444.554688 553.273438 475.945312 539.710938 500.117188 519.804688 C 506.515625 514.5 517.34375 503.5625 522.15625 497.492188 C 526.96875 491.421875 533.148438 481.90625 536.703125 475.179688 C 538.398438 472.007812 539.765625 469.21875 539.765625 469.054688 C 539.765625 468.835938 529.976562 468.671875 518.054688 468.726562 L 496.289062 468.726562 L 492.460938 473.375 C 471.515625 498.914062 438.046875 515.703125 395.828125 521.9375 C 373.023438 525.328125 338.734375 525.328125 315.929688 521.992188 C 282.40625 517.015625 253.367188 505.476562 232.695312 488.851562 C 210.875 471.296875 194.25 444.445312 186.484375 414.257812 C 177.679688 379.96875 180.851562 337.75 195.015625 300.234375 C 207.8125 266.546875 227.335938 241.390625 254.570312 223.5625 C 276.609375 209.125 301 201.085938 332.773438 197.914062 C 341.25 197.039062 365.367188 197.039062 373.789062 197.914062 C 409.71875 201.523438 436.679688 213.117188 457.570312 233.953125 C 477.695312 253.96875 488.960938 277.757812 491.695312 305.976562 C 492.570312 315.164062 492.078125 330.421875 490.546875 339.335938 C 484.53125 374.9375 463.367188 407.585938 435.640625 424.265625 C 429.351562 428.039062 422.132812 430.28125 418.632812 429.515625 C 413.054688 428.3125 411.195312 423.554688 412.617188 413.820312 C 413.546875 407.039062 413.273438 408.515625 423.828125 357.109375 C 425.960938 346.71875 427.929688 337.148438 428.203125 335.78125 C 428.476562 334.414062 430.445312 324.84375 432.578125 314.453125 C 434.710938 304.0625 436.679688 294.492188 436.953125 293.125 C 437.226562 291.757812 439.195312 282.1875 441.328125 271.796875 C 443.460938 261.40625 445.375 252.109375 445.539062 251.125 L 445.867188 249.375 L 391.726562 249.375 L 389.375 260.148438 C 388.117188 266.109375 386.914062 271.304688 386.695312 271.632812 C 386.476562 272.070312 385.21875 270.8125 383.359375 268.1875 C 375.429688 257.085938 363.507812 249.320312 349.34375 245.929688 C 344.859375 244.890625 342.726562 244.726562 331.953125 244.78125 C 321.234375 244.78125 318.882812 244.945312 313.90625 245.984375 C 296.242188 249.8125 281.367188 257.742188 268.078125 270.429688 C 246.148438 291.320312 229.796875 322.492188 224 354.375 C 221.648438 367.117188 220.773438 386.585938 222.03125 397.851562 C 224.4375 419.179688 231.875 436.132812 244.726562 449.476562 C 255.664062 460.851562 268.679688 468.070312 283.882812 471.1875 C 289.570312 472.335938 304.9375 472.828125 310.679688 472.007812 C 326.648438 469.710938 340.539062 463.039062 352.953125 451.664062 C 354.648438 450.132812 356.125 448.929688 356.179688 449.039062 C 356.234375 449.148438 356.78125 450.625 357.328125 452.265625 C 359.570312 458.9375 364.984375 465.445312 370.726562 468.398438 C 376.085938 471.078125 381.117188 472.0625 391.398438 472.335938 C 436.296875 473.703125 474.359375 452.429688 502.25 410.320312 C 524.125 377.289062 532.710938 340.15625 527.953125 299.6875 C 524.726562 272.234375 514.390625 245.164062 498.859375 223.453125 C 472.554688 186.757812 427.820312 163.570312 374.882812 159.195312 C 364.710938 158.375 351.148438 158.101562 341.414062 158.59375 Z M 344.804688 283.007812 C 358.367188 285.851562 369.304688 297.335938 373.1875 312.867188 C 375.210938 321.015625 375.757812 333.484375 374.554688 344.421875 C 373.132812 357.65625 368.484375 375.703125 362.796875 389.8125 C 357.382812 403.320312 352.515625 411.03125 344.039062 419.507812 C 335.5625 427.984375 327.46875 432.25 316.859375 433.726562 C 305.101562 435.367188 295.09375 431.867188 286.835938 423.171875 C 278.578125 414.53125 274.53125 401.132812 274.53125 382.320312 C 274.53125 358.039062 283.335938 325.390625 294.382812 308.710938 C 307.289062 289.1875 326.757812 279.234375 344.804688 283.007812 Z M 344.804688 283.007812 "/>
</g>
</svg>
